# xmcd
#
# Track frame offsets:
#	150
#	13316
#	28439
#	40196
#	54500
#	67507
#	83000
#	94292
#	108259
#	121881
#
# Disc length: 1792 seconds
#
# Revision: 0
# Processed by: cddbd v1.5.2PL0 Copyright (c) Steve Scherf et al.
# Submitted via: dBpowerAMP V4.0
#
DISCID=7a06fe0a
DTITLE=Los Cadetes De Linares - Los 40 Corridos Mas Famosos CD2
DYEAR=1900
DGENRE=Latin
TTITLE0=Otra Tumba Mas
TTITLE1=Los Tequileros
TTITLE2=Lourdes y Benitez
TTITLE3=El Cachas de Oro
TTITLE4=Pistoleros Famosos
TTITLE5=Regalo Caro
TTITLE6=El Asesino
TTITLE7=Las Tres Mujeres
TTITLE8=Ezequiel Rodriguez
TTITLE9=Generoso y Carmelita
EXTD=
EXTT0=
EXTT1=
EXTT2=
EXTT3=
EXTT4=
EXTT5=
EXTT6=
EXTT7=
EXTT8=
EXTT9=
PLAYORDER=
